<?xml version="1.0" standalone="no"?>
<!DOCTYPE svg PUBLIC "-//W3C//DTD SVG 20010904//EN" "http://www.w3.org/TR/2001/REC-SVG-20010904/DTD/svg10.dtd">
<svg xmlns="http://www.w3.org/2000/svg" version="1.0" width="1359" height="1779" viewBox="0 0 1359.000000 1779.000000" preserveAspectRatio="xMidYMid meet">
<metadata>
Created by potrace 1.16, written by Peter Selinger 2001-2019
</metadata>
<g transform="translate(0.000000,1779.000000) scale(0.100000,-0.100000)" fill="#000000" stroke="none">
<path d="M6660 17130 c-109 -14 -261 -47 -345 -75 -83 -28 -236 -101 -340 -163 -74 -44 -247 -176 -325 -249 -123 -114 -294 -343 -400 -536 -23 -43 -48 -81 -55 -83 -7 -3 -46 6 -86 20 -191 64 -372 130 -521 189 -90 36 -197 76 -238 90 -121 39 -284 99 -294 108 -6 5 -16 9 -24 9 -7 0 -40 14 -74 30 -33 17 -66 30 -74 30 -31 0 -11 -31 49 -76 66 -51 98 -78 304 -257 72 -63 165 -141 205 -174 66 -53 209 -173 362 -306 55 -48 134 -113 308 -253 36 -29 99 -84 140 -121 40 -37 100 -90 133 -117 33 -28 79 -68 102 -89 49 -47 81 -46 67 1 -17 51 -9 389 10 482 54 261 168 469 370 679 200 207 399 320 671 383 130 30 406 37 524 13 429 -86 774 -351 985 -759 97 -187 122 -300 131 -605 3 -107 8 -198 11 -203 11 -18 37 0 201 143 93 80 200 173 240 205 39 33 135 113 214 179 79 66 160 134 181 150 20 17 103 86 184 155 208 176 351 297 508 429 127 107 157 141 122 141 -8 0 -40 -13 -71 -30 -31 -16 -65 -30 -74 -30 -9 0 -21 -4 -27 -8 -5 -5 -36 -18 -69 -30 -33 -11 -121 -41 -195 -67 -147 -51 -206 -72 -232 -86 -22 -11 -72 -30 -218 -79 -63 -22 -140 -49 -170 -61 -257 -98 -255 -98 -285 -52 -108 173 -249 381 -295 438 -139 169 -378 360 -592 474 -147 78 -240 109 -433 142 -134 23 -472 34 -585 19z"/>
<path d="M6720 15990 c-165 -43 -344 -184 -408 -322 -65 -138 -75 -182 -75 -329 0 -118 3 -144 22 -195 53 -135 99 -196 240 -319 56 -47 108 -97 116 -109 13 -19 13 -66 4 -342 -6 -175 -14 -472 -18 -659 -5 -231 -11 -347 -19 -362 -9 -16 -25 -24 -60 -29 -69 -10 -98 -28 -114 -71 -18 -51 -18 -319 0 -350 12 -21 90 -63 117 -63 7 0 22 -8 33 -17 20 -18 21 -23 13 -338 -4 -176 -11 -328 -16 -338 -13 -31 -41 -38 -177 -43 -170 -7 -216 -17 -273 -61 -69 -54 -99 -127 -124 -301 -30 -206 -28 -201 -147 -239 -118 -37 -393 -134 -449 -158 -65 -28 -255 -124 -325 -165 -36 -20 -102 -59 -148 -85 -72 -41 -259 -172 -331 -230 -271 -223 -498 -460 -684 -714 -125 -170 -265 -403 -341 -563 -50 -106 -150 -333 -170 -388 -71 -188 -115 -343 -156 -551 -17 -83 -32 -155 -34 -158 -3 -3 -9 -40 -15 -81 -36 -253 -62 -412 -72 -434 -15 -31 -38 -40 -294 -110 -234 -65 -366 -124 -418 -189 -32 -41 -32 -41 -32 -572 0 -291 3 -542 7 -556 11 -39 100 -121 191 -175 82 -49 82 -49 452 -54 370 -5 370 -5 373 -87 3 -76 -2 -138 -27 -338 -6 -44 -15 -145 -21 -225 -5 -80 -17 -199 -25 -265 -8 -66 -14 -158 -15 -205 0 -47 -5 -103 -10 -125 -5 -22 -14 -114 -20 -205 -5 -91 -16 -210 -24 -265 -8 -55 -18 -149 -21 -210 -3 -60 -13 -164 -21 -230 -8 -66 -19 -185 -24 -265 -5 -80 -13 -190 -19 -245 -6 -55 -15 -154 -21 -220 -5 -66 -14 -167 -20 -225 -5 -58 -14 -152 -19 -210 -12 -136 -39 -436 -52 -570 -5 -58 -14 -168 -19 -246 -5 -77 -14 -170 -20 -207 -5 -36 -15 -135 -20 -219 -6 -84 -17 -206 -26 -271 -8 -65 -18 -162 -22 -215 -7 -97 -7 -97 -457 -102 -487 -5 -479 -4 -532 -62 -45 -48 -53 -96 -53 -313 0 -264 12 -303 110 -349 45 -21 45 -21 4880 -24 4300 -2 4841 0 4895 13 97 25 93 9 95 359 0 166 -2 310 -6 320 -3 9 -21 24 -38 34 -28 15 -87 17 -639 20 l-607 3 2 2572 3 2572 265 5 c265 5 265 5 335 43 95 53 170 112 197 156 23 36 23 36 26 545 3 559 1 585 -55 638 -63 60 -221 124 -425 172 -58 14 -117 30 -130 35 -12 5 -42 14 -66 20 -69 19 -66 9 -118 421 -10 74 -39 223 -67 330 -27 107 -51 206 -54 220 -19 91 -87 295 -126 375 -13 28 -35 73 -47 100 -35 79 -188 383 -218 434 -25 44 -105 163 -147 221 -11 16 -47 66 -79 111 -121 170 -199 259 -403 459 -193 190 -309 287 -503 422 -124 86 -432 253 -590 319 -41 17 -88 37 -105 44 -16 7 -82 29 -145 50 -234 76 -285 95 -301 114 -9 11 -21 52 -27 93 -6 40 -16 109 -22 153 -17 112 -45 182 -94 231 -53 54 -117 73 -261 80 -162 7 -193 12 -199 32 -8 24 -26 383 -28 539 -1 94 3 137 12 147 6 9 36 23 66 33 29 9 66 29 81 45 26 28 27 33 31 159 7 203 -17 253 -128 266 -27 3 -55 12 -62 20 -8 10 -15 77 -19 186 -4 95 -10 199 -13 232 -3 33 -8 254 -11 490 -5 313 -3 438 5 455 6 14 37 44 68 67 222 163 308 306 319 533 6 129 -10 205 -69 328 -59 122 -176 240 -298 299 -47 23 -113 49 -148 57 -82 21 -237 19 -322 -4z m-74 -4867 c11 -42 -6 -2845 -16 -2859 -7 -7 -90 -13 -247 -18 -281 -8 -401 -12 -786 -26 -234 -9 -292 -8 -304 2 -29 23 -10 325 39 658 45 301 61 378 109 535 16 55 36 120 44 145 7 25 18 59 24 75 5 17 31 96 56 176 115 361 406 832 723 1169 106 113 206 166 319 169 27 1 34 -3 39 -26z m616 -12 c141 -40 240 -119 421 -335 222 -265 446 -667 550 -986 35 -109 107 -338 122 -390 33 -115 87 -370 101 -485 3 -22 12 -68 20 -101 27 -115 53 -549 35 -583 -13 -23 -38 -23 -486 -1 -104 5 -340 12 -522 16 -226 5 -338 10 -349 18 -14 11 -16 151 -17 1426 -1 778 2 1421 6 1428 11 17 41 15 119 -7z m-1662 -211 c0 -6 -20 -41 -45 -78 -110 -166 -249 -428 -310 -582 -20 -52 -71 -167 -112 -255 -97 -206 -89 -188 -117 -280 -74 -246 -129 -482 -146 -630 -5 -44 -16 -125 -24 -180 -33 -221 -49 -358 -57 -515 -5 -91 -14 -177 -20 -192 -13 -32 -53 -48 -123 -48 -28 0 -114 -8 -191 -16 -77 -8 -180 -19 -230 -24 -154 -16 -267 -29 -335 -40 -125 -21 -179 -23 -195 -10 -45 37 20 431 121 735 37 110 73 220 82 245 45 138 91 247 166 394 68 133 224 387 294 481 25 33 80 105 121 160 94 126 375 406 507 505 194 148 386 262 528 315 70 26 86 29 86 15z m2685 -25 c253 -106 539 -304 780 -542 159 -156 335 -378 465 -588 35 -55 78 -124 98 -154 42 -65 169 -319 206 -413 27 -69 150 -430 180 -528 36 -118 91 -552 74 -584 -11 -20 0 -20 -198 5 -113 14 -353 37 -565 54 -232 19 -262 23 -279 41 -16 15 -18 39 -41 349 -9 116 -20 233 -25 260 -5 28 -14 88 -20 135 -7 47 -19 119 -27 160 -9 41 -19 96 -24 122 -4 27 -10 52 -13 57 -3 4 -12 44 -20 87 -12 70 -30 140 -80 324 -27 100 -72 213 -138 350 -36 74 -78 164 -93 200 -58 139 -224 460 -289 560 -38 58 -71 113 -74 123 -5 19 -6 19 83 -18z m-886 -3314 c11 -7 14 -44 15 -167 0 -88 -2 -167 -6 -177 -7 -16 -38 -17 -500 -15 -493 3 -493 3 -496 173 -2 146 0 172 13 182 20 14 952 18 974 4z m-1977 -19 c10 -10 13 -55 13 -172 0 -132 -3 -162 -16 -175 -17 -18 -238 -37 -624 -55 -110 -5 -225 -11 -255 -14 -30 -3 -60 -2 -67 2 -8 5 -13 60 -15 173 -4 193 -1 199 71 199 25 1 66 5 91 11 183 39 771 62 802 31z m3423 2 c257 -15 483 -44 496 -65 11 -17 3 -339 -9 -351 -8 -8 -579 19 -594 28 -4 3 -86 9 -181 14 -95 5 -180 12 -189 15 -9 4 -19 16 -22 28 -7 28 -6 206 2 277 7 55 7 55 82 60 79 6 263 3 415 -6z m-5182 -166 c14 -17 17 -40 17 -140 0 -122 -11 -169 -44 -181 -32 -13 -185 -46 -261 -57 -44 -6 -105 -16 -135 -21 -109 -19 -231 -23 -240 -9 -10 17 -13 291 -2 306 15 23 116 57 222 74 25 5 77 15 115 23 39 9 108 18 154 21 46 3 87 8 90 11 10 11 66 -7 84 -27z m6767 6 c41 -8 89 -19 105 -24 17 -5 61 -18 98 -30 148 -45 137 -28 137 -204 0 -85 -4 -157 -9 -160 -12 -8 -382 40 -451 58 -30 8 -77 17 -105 21 -83 12 -85 16 -85 186 0 186 -2 184 140 174 52 -4 129 -13 170 -21z m-3443 -1101 c-2 -21 -23 -83 -45 -138 -23 -55 -57 -143 -77 -195 -20 -52 -48 -124 -62 -160 -14 -36 -33 -87 -44 -115 -10 -27 -43 -113 -74 -191 -30 -77 -55 -144 -55 -148 0 -5 -6 -22 -13 -39 -33 -76 -60 -145 -73 -182 -8 -22 -18 -49 -23 -60 -34 -82 -131 -333 -131 -339 0 -4 -28 -78 -61 -164 -34 -87 -72 -184 -84 -217 -30 -78 -93 -241 -110 -285 -7 -19 -34 -89 -60 -155 -25 -66 -53 -135 -61 -153 -7 -18 -14 -37 -14 -43 0 -6 -13 -41 -29 -77 -15 -37 -43 -107 -62 -155 -47 -121 -54 -119 -114 43 -20 52 -42 111 -50 130 -7 19 -34 89 -60 155 -25 66 -62 161 -82 210 -20 50 -40 104 -46 120 -6 17 -16 44 -24 62 -7 17 -13 36 -13 41 0 6 -6 23 -14 39 -8 15 -18 42 -24 58 -5 17 -20 55 -32 85 -13 30 -29 71 -36 90 -7 19 -40 105 -73 190 -33 85 -72 187 -86 225 -26 67 -81 211 -110 285 -72 185 -161 417 -212 555 -9 22 -19 49 -24 60 -5 11 -15 38 -22 60 -24 69 -88 229 -103 258 -8 16 -14 34 -14 40 0 6 -10 35 -21 63 -39 93 -155 84 1117 84 1126 0 1126 0 1121 -37z m2388 -2538 l0 -2570 -286 -3 c-240 -2 -288 0 -298 12 -7 8 -17 72 -22 143 -5 70 -14 173 -20 228 -5 55 -14 165 -19 245 -5 80 -16 199 -24 265 -8 66 -18 170 -21 230 -3 61 -13 155 -21 210 -8 55 -19 174 -24 265 -6 91 -15 185 -20 210 -5 25 -9 79 -10 120 0 41 -7 136 -15 210 -8 74 -20 198 -26 275 -5 77 -14 174 -20 215 -5 41 -14 131 -19 200 -6 69 -15 170 -21 225 -6 55 -14 159 -19 230 -4 72 -13 173 -19 225 -6 52 -15 158 -21 235 -6 77 -17 196 -25 265 -7 69 -16 166 -19 215 -4 50 -13 155 -21 235 -42 420 -60 653 -52 674 6 15 58 16 524 14 l518 -3 0 -2570z m-4910 352 c20 -56 41 -113 47 -127 6 -14 14 -41 18 -60 5 -19 18 -60 30 -90 12 -30 53 -145 91 -255 39 -110 79 -225 90 -255 11 -30 24 -68 29 -85 5 -16 29 -88 55 -160 26 -71 58 -166 72 -210 14 -44 33 -95 41 -114 15 -36 59 -162 68 -196 3 -11 10 -29 15 -40 5 -11 15 -40 23 -65 8 -25 35 -103 61 -175 26 -71 50 -143 55 -160 11 -39 27 -85 60 -170 16 -38 37 -99 49 -135 11 -36 41 -123 67 -195 25 -71 52 -150 59 -175 8 -25 23 -70 35 -100 43 -111 52 -142 43 -151 -5 -5 -294 -8 -669 -7 -659 3 -659 3 -657 38 1 19 7 91 12 160 6 69 15 188 21 265 6 77 14 174 19 216 5 42 12 140 15 218 4 78 13 188 21 244 8 56 19 196 25 311 6 115 15 228 20 250 5 23 11 109 14 191 3 83 10 174 15 202 6 28 15 138 21 245 6 106 15 218 20 248 12 64 30 299 30 380 0 59 14 87 36 69 7 -5 29 -56 49 -112z m2876 93 c4 -14 7 -70 8 -125 1 -55 6 -127 11 -160 5 -33 12 -123 15 -200 4 -77 10 -167 15 -200 5 -33 17 -172 25 -310 9 -137 20 -272 25 -300 5 -27 14 -135 20 -240 6 -104 16 -221 21 -259 6 -37 15 -139 19 -225 5 -86 14 -214 20 -286 17 -216 42 -495 51 -590 5 -49 6 -98 3 -107 -5 -17 -45 -18 -665 -18 -713 0 -687 -2 -658 51 7 13 16 37 20 54 4 16 24 73 44 125 20 52 40 109 45 125 10 35 13 44 85 245 31 85 60 169 65 185 11 40 28 90 52 150 11 28 31 86 45 130 14 44 34 103 44 130 67 181 92 254 100 280 6 26 50 151 120 345 11 30 25 71 30 90 11 37 83 237 101 280 5 14 16 45 23 70 7 25 34 104 60 175 26 72 51 144 55 160 5 17 25 73 45 125 20 52 40 109 44 125 4 17 12 39 18 50 6 11 13 34 16 50 3 17 13 47 22 68 18 44 45 47 56 7z"/>
<path d="M4896 14981 c-517 -267 -693 -360 -836 -441 -47 -27 -108 -56 -137 -65 -89 -29 -93 -67 -5 -50 65 12 144 24 237 35 97 11 197 23 315 40 41 5 98 12 125 15 28 3 80 10 117 16 157 23 197 28 283 39 50 6 137 17 195 25 225 31 267 35 322 35 33 0 60 5 64 12 8 13 -5 26 -196 184 -69 57 -159 133 -200 168 -41 36 -84 67 -94 70 -12 3 -83 -28 -190 -83z"/>
<path d="M8609 14998 c-194 -170 -335 -290 -355 -301 -17 -10 -19 -43 -3 -53 6 -3 45 -10 88 -15 42 -5 114 -13 161 -19 173 -20 415 -51 555 -71 82 -12 189 -26 300 -39 44 -6 116 -14 160 -20 44 -5 121 -14 172 -20 51 -5 122 -16 159 -25 36 -8 70 -13 75 -9 22 13 5 33 -43 53 -77 32 -96 42 -163 82 -33 19 -87 48 -119 62 -33 15 -111 56 -175 91 -64 35 -177 94 -251 131 -74 37 -142 73 -150 80 -36 28 -281 135 -309 135 -23 0 -48 -15 -102 -62z"/>
</g>
</svg>